<?xml version="1.0" encoding="UTF-8" standalone="no"?>
<!-- Created with Inkscape (http://www.inkscape.org/) -->

<svg
   width="300mm"
   height="100mm"
   viewBox="0 0 300 100"
   version="1.1"
   id="svg1"
   inkscape:version="1.4.2 (1:1.4.2+202505120737+ebf0e940d0)"
   sodipodi:docname="sw.svg"
   inkscape:export-filename="sw.png"
   inkscape:export-xdpi="96"
   inkscape:export-ydpi="96"
   xmlns:inkscape="http://www.inkscape.org/namespaces/inkscape"
   xmlns:sodipodi="http://sodipodi.sourceforge.net/DTD/sodipodi-0.dtd"
   xmlns="http://www.w3.org/2000/svg"
   xmlns:svg="http://www.w3.org/2000/svg">
  <sodipodi:namedview
     id="namedview1"
     pagecolor="#ffffff"
     bordercolor="#000000"
     borderopacity="0.25"
     inkscape:showpageshadow="2"
     inkscape:pageopacity="0.0"
     inkscape:pagecheckerboard="0"
     inkscape:deskcolor="#d1d1d1"
     inkscape:document-units="mm"
     inkscape:zoom="0.62098086"
     inkscape:cx="622.40243"
     inkscape:cy="363.13518"
     inkscape:window-width="1470"
     inkscape:window-height="891"
     inkscape:window-x="66"
     inkscape:window-y="32"
     inkscape:window-maximized="1"
     inkscape:current-layer="g4" />
  <defs
     id="defs1">
    <inkscape:path-effect
       effect="spiro"
       id="path-effect23"
       is_visible="true"
       lpeversion="1" />
    <inkscape:path-effect
       effect="skeletal"
       id="path-effect22"
       is_visible="true"
       lpeversion="1"
       pattern="M 0,4.9921383 C 0,2.236478 2.236478,0 4.9921383,0 c 2.7556604,0 4.9921384,2.236478 4.9921384,4.9921383 0,2.7556604 -2.236478,4.9921384 -4.9921384,4.9921384 C 2.236478,9.9842767 0,7.7477987 0,4.9921383 Z"
       copytype="single_stretched"
       prop_scale="0.5"
       scale_y_rel="false"
       spacing="0"
       normal_offset="0"
       tang_offset="0"
       prop_units="false"
       vertical_pattern="false"
       hide_knot="false"
       fuse_tolerance="0" />
    <inkscape:path-effect
       effect="skeletal"
       id="path-effect21"
       is_visible="true"
       lpeversion="1"
       pattern="M 0,4.9921383 C 0,2.236478 2.236478,0 4.9921383,0 c 2.7556604,0 4.9921384,2.236478 4.9921384,4.9921383 0,2.7556604 -2.236478,4.9921384 -4.9921384,4.9921384 C 2.236478,9.9842767 0,7.7477987 0,4.9921383 Z"
       copytype="single_stretched"
       prop_scale="0.5"
       scale_y_rel="false"
       spacing="0"
       normal_offset="0"
       tang_offset="0"
       prop_units="false"
       vertical_pattern="false"
       hide_knot="false"
       fuse_tolerance="0" />
    <inkscape:path-effect
       effect="skeletal"
       id="path-effect20"
       is_visible="true"
       lpeversion="1"
       pattern="M 0,4.9921383 C 0,2.236478 2.236478,0 4.9921383,0 c 2.7556604,0 4.9921384,2.236478 4.9921384,4.9921383 0,2.7556604 -2.236478,4.9921384 -4.9921384,4.9921384 C 2.236478,9.9842767 0,7.7477987 0,4.9921383 Z"
       copytype="single_stretched"
       prop_scale="0.5"
       scale_y_rel="false"
       spacing="0"
       normal_offset="0"
       tang_offset="0"
       prop_units="false"
       vertical_pattern="false"
       hide_knot="false"
       fuse_tolerance="0" />
    <inkscape:path-effect
       effect="skeletal"
       id="path-effect19"
       is_visible="true"
       lpeversion="1"
       pattern="M 0,4.9921383 C 0,2.236478 2.236478,0 4.9921383,0 c 2.7556604,0 4.9921384,2.236478 4.9921384,4.9921383 0,2.7556604 -2.236478,4.9921384 -4.9921384,4.9921384 C 2.236478,9.9842767 0,7.7477987 0,4.9921383 Z"
       copytype="single_stretched"
       prop_scale="0.5"
       scale_y_rel="false"
       spacing="0"
       normal_offset="0"
       tang_offset="0"
       prop_units="false"
       vertical_pattern="false"
       hide_knot="false"
       fuse_tolerance="0" />
    <inkscape:path-effect
       effect="skeletal"
       id="path-effect18"
       is_visible="true"
       lpeversion="1"
       pattern="M 0,4.9921383 C 0,2.236478 2.236478,0 4.9921383,0 c 2.7556604,0 4.9921384,2.236478 4.9921384,4.9921383 0,2.7556604 -2.236478,4.9921384 -4.9921384,4.9921384 C 2.236478,9.9842767 0,7.7477987 0,4.9921383 Z"
       copytype="single_stretched"
       prop_scale="0.5"
       scale_y_rel="false"
       spacing="0"
       normal_offset="0"
       tang_offset="0"
       prop_units="false"
       vertical_pattern="false"
       hide_knot="false"
       fuse_tolerance="0" />
    <inkscape:path-effect
       effect="skeletal"
       id="path-effect16"
       is_visible="true"
       lpeversion="1"
       pattern="M 0,4.9921383 C 0,2.236478 2.236478,0 4.9921383,0 c 2.7556604,0 4.9921384,2.236478 4.9921384,4.9921383 0,2.7556604 -2.236478,4.9921384 -4.9921384,4.9921384 C 2.236478,9.9842767 0,7.7477987 0,4.9921383 Z"
       copytype="single_stretched"
       prop_scale="0.5"
       scale_y_rel="false"
       spacing="0"
       normal_offset="0"
       tang_offset="0"
       prop_units="false"
       vertical_pattern="false"
       hide_knot="false"
       fuse_tolerance="0" />
    <inkscape:path-effect
       effect="skeletal"
       id="path-effect15"
       is_visible="true"
       lpeversion="1"
       pattern="M 0,4.9921383 C 0,2.236478 2.236478,0 4.9921383,0 c 2.7556604,0 4.9921384,2.236478 4.9921384,4.9921383 0,2.7556604 -2.236478,4.9921384 -4.9921384,4.9921384 C 2.236478,9.9842767 0,7.7477987 0,4.9921383 Z"
       copytype="single_stretched"
       prop_scale="0.5"
       scale_y_rel="false"
       spacing="0"
       normal_offset="0"
       tang_offset="0"
       prop_units="false"
       vertical_pattern="false"
       hide_knot="false"
       fuse_tolerance="0" />
    <inkscape:path-effect
       effect="skeletal"
       id="path-effect14"
       is_visible="true"
       lpeversion="1"
       pattern="M 0,4.9921383 C 0,2.236478 2.236478,0 4.9921383,0 c 2.7556604,0 4.9921384,2.236478 4.9921384,4.9921383 0,2.7556604 -2.236478,4.9921384 -4.9921384,4.9921384 C 2.236478,9.9842767 0,7.7477987 0,4.9921383 Z"
       copytype="single_stretched"
       prop_scale="0.5"
       scale_y_rel="false"
       spacing="0"
       normal_offset="0"
       tang_offset="0"
       prop_units="false"
       vertical_pattern="false"
       hide_knot="false"
       fuse_tolerance="0" />
    <inkscape:path-effect
       effect="skeletal"
       id="path-effect13"
       is_visible="true"
       lpeversion="1"
       pattern="M 0,4.9921383 C 0,2.236478 2.236478,0 4.9921383,0 c 2.7556604,0 4.9921384,2.236478 4.9921384,4.9921383 0,2.7556604 -2.236478,4.9921384 -4.9921384,4.9921384 C 2.236478,9.9842767 0,7.7477987 0,4.9921383 Z"
       copytype="single_stretched"
       prop_scale="0.5"
       scale_y_rel="false"
       spacing="0"
       normal_offset="0"
       tang_offset="0"
       prop_units="false"
       vertical_pattern="false"
       hide_knot="false"
       fuse_tolerance="0" />
    <inkscape:path-effect
       effect="powerstroke"
       message=""
       id="path-effect6"
       is_visible="true"
       lpeversion="1.3"
       scale_width="1"
       interpolator_type="CubicBezierJohan"
       interpolator_beta="0.2"
       start_linecap_type="zerowidth"
       end_linecap_type="zerowidth"
       offset_points="0,4.9921383"
       linejoin_type="extrp_arc"
       miter_limit="4"
       not_jump="false"
       sort_points="true" />
    <inkscape:path-effect
       effect="spiro"
       id="path-effect23-1"
       is_visible="true"
       lpeversion="1" />
  </defs>
  <g
     inkscape:label="favicon"
     inkscape:groupmode="layer"
     id="layer1"
     style="display:none">
    <path
       style="fill:#000000;fill-opacity:1;stroke-width:1.5897"
       d="M 44.134819,5.1232408 38.557341,21.773772 20.127418,27.409338 64.383485,21.005286 62.443493,62.247375 0,63.528187 8.7299649,41.882491 0.36374859,48.670784 7.6387191,29.970957 39.891086,45.853002 39.648586,27.665498 12.367449,28.305904 10.791205,0 30.191125,10.630724 Z"
       id="path1" />
    <path
       style="fill:#000000;fill-opacity:1;stroke-width:1.18128"
       d="m 26.722877,52.278036 1.613018,-2.554128 11.582356,-5.947174 1.402153,2.097222 4.067399,-8.517439 17.512774,7.662402 -0.23043,41.807135 3.110826,-2.554129 0.115211,-33.741451 11.291134,9.678814 -2.99561,27.154481 L 86.289348,76.87838 76.150376,42.599215 86.865426,34.802385 90.206675,41.52379 92.165341,24.720276 100,71.097974 84.100252,99.731148 67.624421,87.229339 62.554929,100 43.890002,94.219593 40.082796,63.359103 32.664762,49.926388 Z"
       id="path2"
       sodipodi:nodetypes="cccccccccccccccccccccccc" />
  </g>
  <g
     inkscape:label="homepage"
     inkscape:groupmode="layer"
     id="g4"
     style="display:inline">
    <path
       style="fill:#000000;fill-opacity:1;stroke-width:1.76954"
       d="m 98.98735,17.394921 -6.208459,27.096252 c 0,0 -16.216007,0.855193 -20.514894,6.273116 7.671863,-0.02333 53.958473,-8.532034 53.958473,-8.532034 0,0 8.83189,36.191862 -15.28022,43.708153 C 86.830125,93.456706 47.636079,64.94079 20.845592,92.606464 24.163917,82.340138 25.39805,66.234062 39.207705,59.531486 29.248569,61.087133 23.779296,71.323071 23.779296,71.323071 c 0,0 6.18062,-15.925541 15.784709,-19.599102 9.604092,-3.67356 51.009041,8.991344 51.009041,8.991344 0,0 13.921964,-7.892887 -1.040409,-9.83746 -6.785718,-1.23356 -15.844179,4.247272 -25.906491,0.884429 -32.572175,-10.88568 8.874185,-31.606559 8.874185,-31.606559 l 10.965878,11.931792 z"
       id="path3"
       sodipodi:nodetypes="cccczccczccsccc" />
    <path
       style="fill:#000000;fill-opacity:1;stroke-width:1.31492"
       d="m 140.18538,33.316572 c 4.2729,-3.381515 9.6123,-6.856763 14.68815,-9.463053 l 7.5138,3.997064 c 0,0 -2.64168,-7.859106 -0.1158,-14.090373 6.29121,7.684051 8.31594,8.242597 18.18431,11.476023 -3.71952,24.351964 -0.2565,46.536762 -0.2565,46.536762 0,0 0.45695,3.485961 3.46275,-2.843076 3.00579,-6.329038 0.12824,-37.55861 0.12824,-37.55861 0,0 3.63853,3.998192 11.96303,6.636332 -3.38145,11.215769 -2.304,23.637894 -2.72903,34.363901 9.35283,-1.786336 11.87144,-18.967535 12.15878,-22.740392 0.28733,-3.772858 -1.59948,-18.04773 -9.97852,-27.088364 4.6689,-2.434077 11.92724,-8.678883 11.92724,-8.678883 l 3.71924,7.481797 c 0,0 1.1594,-10.812311 5.43217,-19.2464811 -3.85703,15.7745781 8.4307,37.6471991 5.46907,52.1663821 -2.96163,14.519182 -17.69849,31.872443 -17.69849,31.872443 l -18.33973,-13.916139 -5.643,14.215404 -20.77649,-6.434345 c 0,0 -2.72045,-46.082317 -3.58307,-47.939627 -0.86262,-1.857309 -6.24085,-1.666155 -8.91206,-1.364455 -2.67121,0.301699 -6.61409,2.61769 -6.61409,2.61769 z"
       id="path4"
       sodipodi:nodetypes="cccccczccczccccccccczcc" />
    <path
       style="fill:none;stroke-width:2.94515"
       d="m 114.97774,25.953546 c -0.22185,-0.166387 -0.49916,-0.721015 -0.66555,-0.499163 -0.16639,0.22185 0.92864,0.586858 0.66555,0.499163 -0.58827,-0.196089 -1.07991,-0.62338 -1.66387,-0.831942 -1.05556,-0.376982 -5.66593,0.440643 -6.65555,0.665555 -1.13886,0.258833 -0.90989,0.379124 -1.99665,0.831942 -0.43163,0.179843 -2.04121,0.487353 -1.83028,1.331107 0.35114,1.404533 6.63528,1.237909 7.98665,1.331108 0.93634,0.06457 3.58734,0.451245 4.65887,0.665552 0.8085,0.161701 1.53969,0.595021 2.32944,0.831941 0.36066,0.108207 3.83888,0.534717 3.16138,1.663886 -0.3628,0.604656 -1.07504,1.014038 -1.66389,1.331108 -0.98383,0.529751 -2.059,1.221901 -3.16138,1.497494 -1.11517,0.278795 -5.54042,0.815404 -6.48914,0.499165 -0.40071,-0.133571 -0.79549,-0.294032 -1.16472,-0.499165 -0.68004,-0.377798 -1.45964,-1.544808 -0.83194,-2.329435 0.56823,-0.710281 1.54386,-0.733748 2.32944,-0.831946 0.45465,-0.05682 0.3129,1.164721 0.66555,1.164721"
       id="path5" />
    <path
       style="fill:#000000;stroke:none;stroke-width:0.603447;stroke-dasharray:none;stroke-opacity:1"
       d="m 35.044033,240.65953 c -0.08937,-0.143 1.182356,-0.67922 2.529338,-2.1525 -1e-6,0 10e-7,-10e-6 10e-7,-10e-6 0.309986,-0.29366 0.351593,-0.958 0.899121,-1.79073 0.562723,-0.87014 1.296698,-1.86469 2.229032,-2.82949 0.502882,-0.52131 1.147529,-1.11429 1.573735,-1.64772 0.563013,-0.68693 1.004842,-1.51184 1.446712,-2.48649 0.760173,-1.69355 1.333815,-3.43625 2.009495,-5.56923 0,0 2e-6,-1e-5 2e-6,-1e-5 0.763819,-2.36473 0.703742,-4.94886 0.492567,-8.08312 -0.202905,-2.66699 -0.619299,-5.45315 -1.262607,-8.39167 -0.235023,-1.03889 -0.617807,-2.06094 -1.180835,-2.95593 -0.227117,-0.31863 -0.360208,-0.55121 -0.461438,-0.58632 0,0 -2e-6,-1e-5 -2e-6,-1e-5 -0.01579,0.23498 0.343553,0.13965 1.281098,-0.0723 -1.703768,1.23407 -2.829683,3.3505 -3.352047,5.7268 -0.527018,2.45453 -0.583434,5.25597 -1.129948,8.30971 -0.990273,5.71147 -1.545708,12.21464 0.491118,17.93234 0.506803,1.13239 0.550833,1.96943 0.787561,1.87802 -0.04944,0.0473 0.171188,0.0309 0.34833,0.003 0.400881,-0.0644 0.885501,-0.40639 1.491718,-0.82448 0.562744,-0.42051 1.107535,-0.93381 1.665334,-1.50114 0.291559,-0.29998 0.646982,-0.72125 1.137198,-1.19959 2.40958,-2.30713 4.192945,-5.38046 5.712043,-8.77246 1.416484,-3.25544 2.520886,-6.71599 2.764917,-10.20493 0.305237,-4.03116 0.201708,-7.98719 0.293338,-12.38735 l 0,0 c 0.0066,-0.36358 -0.0043,-0.77973 -0.0047,-1.2481 l 0,0 c -0.0016,-0.30668 -0.0027,-0.50754 -0.0043,-0.81422 l 0,0 c 0.783304,-0.21691 1.567091,-0.43483 2.351553,-0.65377 0,0 0,0 0,0 -0.08292,0.20727 0.111004,-0.27742 0.02808,-0.0701 0.0037,-0.009 0.0072,-0.0192 0.01134,-0.0285 1.620832,2.50393 2.637025,4.94723 3.65492,7.22315 0.29346,2.86212 0.516828,5.75118 0.943724,8.47946 0.420288,2.53997 0.902523,4.98354 1.962453,6.97424 0,0 6e-6,10e-6 6e-6,10e-6 0.847617,1.53344 2.071683,2.89429 3.461568,3.19784 -0.479362,0.0711 -0.502284,-0.0683 -0.33983,-0.0719 0,0 3e-6,0 3e-6,0 0.329765,-0.24203 0.632561,-0.76894 1.026304,-1.42448 0.335836,-0.60736 0.627822,-1.271 0.898482,-1.97339 0.08873,-0.23229 0.172244,-0.46291 0.249266,-0.69199 0.04086,-0.13268 0.06596,-0.19831 0.0661,-0.19921 0.403493,-1.45604 0.811265,-2.91157 1.189966,-4.35235 0.55701,-2.11916 1.049903,-4.20158 1.396688,-6.27676 0.522473,-3.06474 0.648907,-6.21603 0.551859,-9.3586 0,0 0,-1e-5 0,-1e-5 -0.07069,-2.16558 -0.135596,-4.24835 -0.336134,-6.27324 0,0 4e-6,3e-5 4e-6,3e-5 0.06742,0.30789 0.06222,0.39033 0.04038,0.24528 -0.09882,-0.0985 0.02094,0.0494 0.335958,0.46337 2.374721,0.22699 3.760909,-0.25633 4.194237,-1.4939 -0.68546,8.79968 1.249394,18.62958 2.05034,27.48751 1.663548,17.85517 2.667343,32.90654 0.0012,48.12404 -0.333025,1.98074 -1.00027,3.95176 -2.122005,5.72865 -0.918236,1.44951 -1.981964,2.89245 -3.351815,4.15665 -0.588547,0.58721 -1.423491,1.17595 -2.539084,1.55783 0,0 -2e-5,0 -2e-5,0 -1.161381,0.34673 -2.396401,0.11243 -3.431847,-0.67726 -1.423256,-1.1912 -2.405497,-2.85305 -2.738552,-4.69556 -1.118114,-6.46392 -1.830579,-12.23446 -0.778944,-18.04815 1.31714,-6.84967 5.503686,-12.04124 9.29157,-15.32767 3.41777,-3.02557 7.704615,-3.31126 10.615507,-2.15654 3.347034,1.42878 4.546784,4.48807 4.879909,6.04837 0.376183,1.76198 0.10884,2.69518 -0.03878,2.69518 -0.147624,-1e-5 -0.194701,-0.92012 -0.794178,-2.44816 -0.529046,-1.34852 -1.911823,-3.91216 -4.628463,-4.71596 -2.381736,-0.79377 -5.815815,-0.22248 -8.443281,2.30817 -3.337052,3.26043 -6.974982,8.1842 -7.815774,14.11434 -0.810823,5.21977 0.08816,10.47348 1.309531,16.8764 0.16639,0.90447 0.766023,1.806 1.552553,2.45628 -0.133478,-0.038 -0.0762,-0.067 -0.101517,-0.0705 0,0 -10e-7,0 -10e-7,0 0.243182,-0.0368 0.566333,-0.35363 1.0345,-0.74715 0.973138,-0.91037 1.782651,-2.10762 2.61757,-3.44256 0.75494,-1.20367 1.190541,-2.68626 1.453913,-4.28393 2.312726,-14.65821 1.064173,-29.14425 -0.713952,-46.99544 -0.873147,-8.51175 -2.879498,-18.55499 -2.240762,-28.29687 0.438661,-1.31225 1.888101,-1.85046 4.314461,-1.56932 0.420273,0.52411 0.601925,0.81616 0.567682,0.85565 0.144022,0.20942 0.297206,0.66102 0.40361,1.35876 0,0 7e-6,5e-5 7e-6,5e-5 0.225987,2.2404 0.305347,4.43391 0.379049,6.60005 0,0 10e-7,2e-5 10e-7,2e-5 0.120708,3.39011 -0.02081,6.87117 -0.599354,10.35168 -0.386932,2.28658 -0.909497,4.5161 -1.485413,6.71628 -0.391786,1.49674 -0.806932,2.97481 -1.213382,4.42503 -0.06121,0.21923 -0.112447,0.36952 -0.144538,0.45329 -0.101295,0.29998 -0.207923,0.59413 -0.318625,0.8826 -0.329649,0.86515 -0.718767,1.73569 -1.189378,2.5935 -0.458449,0.89273 -1.131138,1.8741 -2.131508,2.78495 0,0 -1.8e-5,2e-5 -1.8e-5,2e-5 -0.931962,0.94665 -2.464047,1.41988 -4.328189,1.08278 -3.027735,-0.99581 -5.245825,-3.19797 -6.471318,-5.71337 0,0 -8e-6,-1e-5 -8e-6,-1e-5 -1.404152,-2.82169 -2.03431,-5.7644 -2.418757,-8.49023 -0.445992,-2.98349 -0.663547,-5.95588 -0.929142,-8.74327 0.537733,-2.57284 1.141419,-4.91782 1.247062,-6.96244 0.0032,0.0117 0.0072,0.0235 0.01092,0.0348 0.0031,0.009 0.02495,0.0761 0.02801,0.0854 0,0 0,0 0,0 0.784515,-0.0395 1.568551,-0.078 2.352004,-0.1156 l 9.3e-5,-2e-5 c -0.001,0.41449 -9.33e-4,0.40001 -0.0019,0.8145 l 0,0 c 7.6e-4,0.40687 0.0078,0.86348 -0.007,1.37213 l 0,0 c -0.119542,4.25777 -0.05834,8.31556 -0.421845,12.64408 -0.371682,4.20724 -1.651597,8.15305 -3.281136,11.69647 -1.665255,3.71566 -3.842142,7.2403 -6.836694,10.09167 -0.2804,0.25725 -0.615538,0.64705 -1.069676,1.09852 -0.659647,0.65953 -1.382554,1.30814 -2.195084,1.90437 -0.791932,0.61556 -1.816617,1.18905 -3.089771,1.51718 -1.33594,0.32636 -2.782992,0.0349 -4.02176,-0.89092 -1.446701,-1.46805 -1.902012,-2.94444 -2.073179,-3.84346 -2.168499,-6.89924 -1.479054,-14.00902 -0.224065,-19.97243 0.548572,-2.64071 0.695381,-5.5171 1.374188,-8.38194 0.70979,-3.05933 2.39046,-5.8098 4.87158,-7.61928 1.364027,-0.52191 2.322784,-0.37898 2.71581,0.18145 0,0 1.2e-5,1e-5 1.2e-5,1e-5 0.598098,0.52279 0.969411,1.05347 1.195125,1.49236 0.740198,1.28522 1.206169,2.65682 1.449354,4.00902 0.562737,3.09161 0.882848,6.03728 0.976372,8.85241 0.133069,3.23149 -0.01261,6.20558 -1.031228,9.00166 0,0 -2e-6,0 -2e-6,0 -0.788549,2.10614 -1.515171,3.92122 -2.442072,5.67754 -0.540705,1.03423 -1.15023,1.97308 -1.908464,2.78407 -0.602731,0.63215 -1.312728,1.18954 -1.811582,1.62203 -0.916447,0.79533 -1.691525,1.65656 -2.31296,2.41486 -0.369043,0.42756 -0.642058,1.24762 -1.246433,1.78519 0,0 -3e-6,0 -3e-6,0 -1.934475,1.50987 -3.102755,1.56643 -3.19213,1.42343 z"
       id="path18"
       inkscape:path-effect="#path-effect18"
       inkscape:original-d="m 35.044033,240.65953 c 0.953577,-0.59599 2.028669,-1.03154 2.860736,-1.78797 0.514284,-0.46753 0.663977,-1.22586 1.072777,-1.78796 3.663897,-5.03785 4.283506,-2.14237 7.867028,-12.51572 1.575276,-4.56001 0.575648,-12.49822 -0.357592,-17.16443 -0.500201,-2.50099 -2.053138,-5.23604 -2.860739,-4.64869 -4.931656,3.58666 -4.245218,9.20182 -5.363882,15.01887 -1.267955,6.59336 -1.797688,12.48654 0.357592,18.95238 0.33714,1.01143 0.605227,2.18562 1.43037,2.86074 2.63571,2.15649 6.796584,-2.89547 7.509435,-3.57592 4.868918,-4.64761 8.763601,-13.71031 9.297395,-20.38276 0.332827,-4.16031 0.255828,-8.34335 0.357592,-12.51572 0.0047,-0.19118 -0.0016,-2.50776 0,-2.50315 2.459821,7.37947 0.148628,25.20138 9.297398,27.89219 2.88258,0.84782 4.976913,-5.97365 5.006289,-6.07906 2.502607,-8.97994 3.471881,-13.13384 3.218331,-20.74035 -0.07159,-2.14767 -0.143774,-4.29846 -0.357592,-6.43666 -0.02652,-0.26521 -0.338603,-0.98104 -0.357592,-0.71518 -0.653984,9.15576 1.286544,18.97998 2.145551,27.89219 1.504037,15.60438 2.949202,32.01011 0.357592,47.55974 -0.291314,1.74789 -0.843817,3.50679 -1.787959,5.00629 -1.41015,2.23967 -4.403476,6.34304 -6.436659,4.6487 -1.067882,-0.8899 -1.89689,-2.20826 -2.145553,-3.57592 -2.401441,-13.2079 -2.886337,-22.63041 7.509435,-32.18328 5.863349,-5.38795 14.661277,-2.47216 14.661277,5.72147"
       transform="matrix(0.30068697,0,0,0.31182804,202.92441,8.711084)" />
    <path
       style="fill:#000000;stroke:none;stroke-width:0.603447;stroke-dasharray:none;stroke-opacity:1"
       d="m 99.947658,211.29489 c -0.272682,0.11167 -1.400767,-2.48678 -2.881363,-7.1116 -0.589728,-1.79346 -1.502572,-4.33419 -3.17222,-6.02471 -1.091707,-1.14478 -2.362552,-2.49721 -3.677128,-3.59176 0,0 -4e-6,-1e-5 -4e-6,-1e-5 -0.679713,-0.55746 -1.363404,-1.09823 -2.05872,-1.40773 -0.508311,-0.0912 -0.816148,-0.31938 -0.567051,-0.1966 -0.826758,0.46351 -1.498222,1.33273 -1.805402,2.33054 -0.340803,1.02095 -0.372678,2.21546 -0.449593,3.63415 -0.13823,3.42238 -0.699735,7.71584 -0.293027,11.13842 0.106128,0.99865 0.380923,2.04046 0.691157,3.19493 0.54255,1.98404 1.133916,4.03169 1.698522,6.16658 0.250019,0.83657 0.173087,1.19052 0.155264,0.88365 0,0 0,-1e-5 0,-1e-5 0.971605,1.58813 1.744731,3.15664 2.779387,4.04269 0,0 -10e-7,0 -10e-7,0 -0.0023,0.001 4e-5,-0.001 0.0017,-0.002 0.0039,-0.002 0.01237,-0.002 0.02497,9.2e-4 0,0 2e-6,0 2e-6,0 0.133876,0.084 0.275848,0.16834 0.425172,0.25482 0,0 7e-6,1e-5 7e-6,1e-5 0.448013,0.2583 0.89911,0.49574 1.353589,0.70128 0.504987,0.21845 0.93909,0.40048 1.303319,0.46027 0.354026,-0.0954 0.302882,0.0687 -0.284281,0.19924 0.477803,-0.18794 0.912208,-1.26009 2.053074,-2.51994 0.763371,-1.10835 0.815197,-0.72902 -0.204947,0.98106 0.189214,-3.57709 0.230775,-7.16304 0.258886,-10.98048 0.03081,-4.25968 -0.06058,-8.66066 -0.08401,-13.19674 -0.03733,-5.97529 0.05103,-12.31083 -0.763596,-18.26972 -0.420491,-3.26811 -1.669612,-6.70321 -2.495052,-10.57657 -7.1e-4,-0.004 -0.827758,-4.80047 -0.828467,-4.80458 -1.59e-4,-9.2e-4 -0.18391,-1.06946 -0.184068,-1.07038 -0.134401,-0.28235 -0.476666,-0.88264 -0.756525,-1.89679 -0.389055,-1.70959 -0.470056,-3.18427 -0.722944,-4.34047 l 0,0 5e-6,1e-5 0,0 c 0.27685,0.47388 -0.133506,0.16012 -0.640836,-1.1651 0,0 -6e-6,-2e-5 -6e-6,-2e-5 -9e-6,-4e-5 -1.8e-5,-8e-5 -1.8e-5,-8e-5 -0.162275,-0.70267 -0.19969,-1.06081 -0.142782,-1.06657 3.3e-5,0 1.09e-4,-1e-5 1.09e-4,-1e-5 0.830399,-0.0427 1.6634,-0.0921 2.499289,-0.14803 0,0 0,0 0,0 0.0061,-0.0204 0.01096,-0.0443 0.02095,-0.064 0.006,0.006 0.0081,0.0117 0.01068,0.0178 0.782747,2.74981 2.430441,5.7771 3.827085,8.92874 1.456575,7.38206 2.919738,14.08129 3.864701,21.25938 1.316557,10.04916 2.429687,19.06037 3.337857,27.97483 0,0 0,1e-5 0,1e-5 0.45559,4.47398 0.71275,8.92435 0.91043,12.98906 0.0753,1.65225 -0.18107,2.91978 -0.0702,3.84208 0.66198,6.73652 1.31855,12.3842 2.13302,17.83154 0.0811,0.59708 0.27315,1.25652 0.46477,1.94516 0.29704,1.05011 0.63048,2.10743 0.94992,3.10756 0.85949,2.69001 1.74519,5.32711 2.60468,8.01712 1.07997,3.38162 1.80368,5.81388 2.36618,8.11384 0.3261,1.33238 0.52879,2.35083 0.64755,3.24998 0.19888,1.46847 0.0786,2.24629 -0.10851,2.24629 -0.1552,0 -0.31135,-0.68278 -0.77602,-2.03686 -0.32533,-0.9289 -0.60108,-1.67287 -1.12425,-3.03365 -1.00522,-2.61246 -1.6017,-4.06658 -3.10559,-7.78009 -0.86293,-2.12973 -2.08651,-5.12971 -3.13031,-7.85435 -0.38003,-0.99151 -0.77987,-2.0564 -1.1509,-3.148 -0.23285,-0.67228 -0.49021,-1.44004 -0.66338,-2.29868 -1.08525,-5.4388 -1.9922,-11.21178 -2.873283,-17.92768 -0.183433,-1.64259 0.02443,-3.01536 -0.07018,-4.02494 -0.318675,-4.02689 -0.689874,-8.42312 -1.235105,-12.75757 -10e-7,0 -10e-7,0 -10e-7,0 -1.123525,-8.9524 -2.359535,-17.67506 -3.814001,-27.80955 -0.992306,-6.93521 -2.489032,-13.46946 -4.002324,-20.9365 0.190202,-2.87781 0.181025,-6.13389 0.966346,-9.66604 0.0025,-0.009 0.0055,-0.017 0.0067,-0.0255 -0.003,0.0153 0.0013,0.0346 0.0043,0.0505 0,0 0,0 0,0 0.829823,0.0155 1.659147,0.0378 2.487682,0.0668 0,0 7.6e-5,0 7.6e-5,0 0.05321,0.1381 0.0063,-0.0714 -0.110461,-0.63752 0,0 -6e-6,-3e-5 -6e-6,-3e-5 -9e-6,-5e-5 -1.1e-5,-5e-5 -1.1e-5,-5e-5 -0.169149,-0.31069 0.287868,0.17268 0.789529,1.69562 l 0,0 1e-5,3e-5 0,0 c 0.352435,1.66865 0.429267,3.11568 0.707426,4.24175 0.01449,0.23658 0.329305,0.76438 0.673843,1.67913 -1.54e-4,-8.6e-4 0.206963,1.14543 0.206809,1.14458 -3.38e-4,-0.002 0.926544,5.14045 0.926206,5.13858 0.721089,3.39534 1.979005,6.94873 2.51124,10.87897 0.829691,6.46519 0.704111,12.99195 0.666771,18.91986 -0.0241,4.62556 0.0148,8.77957 -0.084,13.26508 -0.08431,3.82898 -0.191142,7.49677 -0.456298,11.19024 -1.039939,2.0549 -1.454545,2.54773 -0.920131,1.69624 -0.581858,0.67883 -1.315176,1.97744 -2.953218,3.20154 -1.392856,0.66169 -2.468949,0.69766 -3.051498,0.40775 -0.863612,-0.20383 -1.599309,-0.50293 -2.219182,-0.81256 -0.597449,-0.28829 -1.165557,-0.60302 -1.705994,-0.93335 0,0 -8e-6,-1e-5 -8e-6,-1e-5 -0.179796,-0.10952 -0.363563,-0.2251 -0.550322,-0.34833 0,0 -1.3e-5,-10e-6 -1.3e-5,-10e-6 -0.08229,-0.0588 -0.168289,-0.12048 -0.257586,-0.18589 -0.03917,-0.0287 -0.08043,-0.0564 -0.118626,-0.0892 0,0 -1.4e-5,-1e-5 -1.4e-5,-1e-5 -1.727194,-1.73099 -2.769405,-3.68188 -3.657269,-5.25471 0,0 -9e-6,-2e-5 -9e-6,-2e-5 -0.521461,-1.16308 -0.571457,-1.85975 -0.559913,-1.97708 -0.492028,-2.09165 -1.022368,-4.15091 -1.51211,-6.18801 -0.294475,-1.20108 -0.567217,-2.45654 -0.681475,-3.80673 -0.299422,-4.11543 0.429273,-8.48825 0.714315,-11.70121 0.104456,-1.42274 0.261249,-2.91803 0.797002,-4.44482 0.626671,-1.71651 1.856255,-3.08952 3.384663,-3.89417 1.436699,-0.51716 2.58985,-0.23637 3.2396,0.25838 1.036926,0.56901 1.867119,1.28162 2.553434,1.94292 0,0 5e-6,0 5e-6,0 1.405945,1.33313 2.630936,2.81739 3.63811,4.04554 1.917042,2.36612 2.66952,5.18847 3.061323,7.13325 1.026034,4.91598 1.529248,7.42681 1.256566,7.53848 z"
       id="path19"
       inkscape:path-effect="#path-effect19"
       inkscape:original-d="m 99.947658,211.29489 c -1.96276,-4.79282 -1.825901,-10.10594 -5.185736,-13.90402 -1.293252,-1.46193 -5.838068,-6.81399 -7.867026,-5.72147 -2.804268,1.50999 -3.043041,4.40567 -3.21833,7.15184 -0.876128,13.72602 -1.062982,9.69417 1.787961,21.09794 0.119198,0.47679 0.108411,1.00676 0.357593,1.43037 0.955569,1.62447 1.850143,3.35252 3.218328,4.6487 0.08789,0.0833 4.041544,2.66952 5.363882,1.78796 1.05428,-0.70285 1.66134,-1.91371 2.503146,-2.86074 0.111993,-0.12599 0.347078,-0.18935 0.357592,-0.35759 0.230616,-3.68984 0.303231,-7.38872 0.357592,-11.08536 0.06485,-4.40983 0,-8.8206 0,-13.23091 0,-6.16144 0.08771,-12.52849 -0.715184,-18.59479 -0.481796,-3.64023 -1.738979,-7.13618 -2.503146,-10.72777 -0.35759,-2.02635 -0.715182,-4.05271 -1.072775,-6.07906 -0.238395,-0.59599 -0.568166,-1.16313 -0.715184,-1.78796 -0.332132,-1.41156 -0.411348,-2.8732 -0.715185,-4.29111 -0.111694,-0.52123 -0.546613,-0.92466 -0.715185,-1.43037 -0.03769,-0.11308 0,-0.47679 0,-0.35759 0,3.44215 0.534821,4.81965 1.43037,9.29739 2.011394,10.05698 2.651932,11.76071 3.933512,21.09794 1.274609,9.28643 2.517564,18.57864 3.575927,27.89219 0.48618,4.27845 0.79848,8.57608 1.07277,12.87332 0.0835,1.30851 -0.14948,2.63089 0,3.93351 0.68609,5.97876 1.46805,11.95131 2.50315,17.87961 0.70192,4.02011 8.43752,22.3358 8.43752,26.41578"
       transform="matrix(0.30068697,0,0,0.31182804,202.92441,8.711084)"
       sodipodi:nodetypes="cssssssssssssccssssssssssc" />
    <path
       style="fill:#000000;stroke:none;stroke-width:0.603447;stroke-dasharray:none;stroke-opacity:1"
       d="m 107.99283,215.62807 c -0.28853,-0.16266 1.19762,-2.69929 2.25998,-7.50406 0.53267,-2.37164 0.7258,-4.3941 1.10579,-7.70919 0.10447,-0.91314 0.23887,-1.83147 0.33909,-2.75056 0.14244,-1.30276 0.26457,-2.6962 0.28197,-4.0821 -6.3e-4,-1.20356 0.001,-2.40799 -0.32321,-3.35797 -0.13126,-0.31276 -0.19599,-0.53066 -0.26533,-0.53129 0.0572,0.0584 0.0769,0.0785 0.17764,0.1051 0.85615,-0.23103 1.22849,-0.36198 1.10185,-0.4674 0.0457,-0.0678 0.0509,-0.0451 -0.009,0.0567 -0.14614,0.30312 -0.26345,0.68826 -0.41153,1.14823 -0.39748,1.27593 -0.71236,2.59832 -1.04676,4.03995 -0.31071,1.34611 -0.60571,2.71932 -0.89702,4.14257 -0.0939,0.4588 -0.18692,0.92097 -0.27773,1.38443 -0.026,0.13266 -0.0516,0.26402 -0.0762,0.39375 -0.0163,0.10688 -0.022,0.12297 -0.01,0.0497 -0.36182,2.73256 -0.72237,5.65073 -0.92572,8.5493 -0.24291,3.53411 -0.35108,7.27489 0.13323,10.89149 0.21522,1.58153 0.52112,3.13294 1.05882,4.53581 0.46409,1.16149 1.01006,2.22775 1.76218,2.91968 0.62675,0.62309 1.50929,1.05779 2.40626,1.18121 0,0 0,0 0,0 1.2443,0.22752 2.71078,-0.11683 4.27564,-0.62144 3.19853,-1.02851 5.80964,-4.0567 7.0832,-7.57072 1.3045,-3.58891 1.54641,-7.65116 1.57357,-11.95506 0.0133,-0.26952 -0.0111,-0.5634 -0.0597,-0.88342 -0.12298,-0.81013 -0.39957,-1.78174 -0.60879,-2.93145 -0.54288,-2.80464 -1.2636,-5.65994 -1.78231,-8.62724 -0.19181,-1.16297 -0.22462,-2.18125 -0.2877,-3.00966 0,0 0,-1e-5 0,-1e-5 -0.041,-0.36916 -0.0456,-0.59602 -0.0772,-0.66847 0,0 0,0 0,0 -0.25292,-0.35422 0.88877,-0.33958 3.31567,0.3586 0.1086,-0.18871 0.23286,-0.33544 0.35508,-0.48051 0.2907,-0.34504 0.58011,-0.62085 0.86045,-0.82859 -0.003,0.0273 0.0115,0.122 0.0287,0.28407 0.0546,0.44948 0.13337,0.92607 0.2173,1.4285 0,0 0,0 0,0 0.0867,0.51528 0.1784,1.03041 0.27391,1.54498 0.0654,0.33001 0.0988,0.5668 0.13343,0.70347 0.68028,2.78418 1.59071,5.65438 2.42294,8.44001 0.4558,1.52296 0.90887,3.02368 1.36444,4.51231 0,0 0,1e-5 0,1e-5 0.25381,0.82086 0.4552,1.55644 0.68933,2.21278 0.94962,2.69456 2.28837,5.3459 3.45009,8.13928 0.6454,1.54823 1.12643,2.9898 1.70309,4.23255 0.49575,1.06996 1.00721,2.06698 1.59276,2.96907 0,0 -9e-5,-8e-5 -9e-5,-8e-5 -0.92422,-0.82301 -1.41315,-1.12818 -1.5327,-0.87837 0,0 -6e-5,-9e-5 -6e-5,-9e-5 -0.46832,-0.77899 -1.08234,0.1115 -1.98708,2.64392 0,0 -1.1e-4,2.9e-4 -1.1e-4,2.9e-4 -0.2531,-1.06388 -0.89716,-2.31839 -1.35865,-3.89837 -1.8571,-6.52795 -3.03007,-12.61064 -3.66351,-18.24629 -0.39366,-3.52732 -0.40081,-7.32593 -0.4601,-10.1702 -0.081,-1.0236 -0.39037,-2.44697 0.22399,-4.18387 0.53945,-1.31412 1.45638,-2.56518 2.82528,-3.34753 1.21827,-0.59167 2.47215,-0.56741 3.48111,-0.23575 2.54223,0.85357 4.42625,2.84681 5.45932,3.89389 0.014,0.0216 0.0678,0.0639 0.14719,0.1325 0.14003,0.1218 0.27498,0.24052 0.40724,0.35907 0.4439,0.39793 0.82537,0.76428 1.16258,1.11571 0,0 0,0 0,0 0.49365,0.51317 0.83926,0.93522 1.09876,1.34292 0.52917,0.71426 0.40062,1.20266 0.26563,1.20266 -0.1223,0 -0.26621,-0.18984 -0.80949,-0.73035 -0.36769,-0.30442 -0.69662,-0.54551 -1.28911,-0.96038 0,0 0,0 0,0 -0.38559,-0.26843 -0.79275,-0.54082 -1.28175,-0.85741 -0.14429,-0.0933 -0.28909,-0.18606 -0.44352,-0.28476 -0.0502,-0.0286 -0.13468,-0.0799 -0.24657,-0.1661 -1.20066,-0.86852 -3.23967,-2.56264 -5.05341,-2.8949 -0.60964,-0.10709 -1.29334,-0.0855 -1.69709,0.22989 -0.65144,0.34746 -1.05051,1.2047 -1.50895,2.26044 -0.3025,0.4494 0.16843,1.42633 0.22399,2.96797 0.23908,2.84499 0.45335,6.65692 0.97026,9.85496 0.86553,5.41832 2.21902,11.23583 4.20353,17.51293 0.32861,1.05374 1.00969,2.2991 1.50207,3.96865 0,0 -10e-5,3e-4 -10e-5,3e-4 -0.87191,2.65267 -1.67832,3.58654 -2.27157,2.80456 0,0 -7e-5,-9e-5 -7e-5,-9e-5 -0.27737,0.24612 -0.95146,-0.0844 -1.96339,-1.03901 0,0 -9e-5,-9e-5 -9e-5,-9e-5 -0.76396,-1.12218 -1.40787,-2.28836 -1.98316,-3.46759 -0.73774,-1.51749 -1.28083,-3.0106 -1.87283,-4.34965 -1.14009,-2.5775 -2.55359,-5.26323 -3.70175,-8.30996 -0.32085,-0.86258 -0.55867,-1.66523 -0.7953,-2.40359 0,0 0,0 0,0 -0.48261,-1.49407 -0.961,-3.0004 -1.43944,-4.52574 -0.85839,-2.73061 -1.82091,-5.66145 -2.58595,-8.65848 -0.10357,-0.41611 -0.15946,-0.74343 -0.2008,-0.97471 -0.1047,-0.53794 -0.20584,-1.08003 -0.30214,-1.62594 0,0 0,-1e-5 0,-1e-5 -0.0915,-0.51511 -0.18489,-1.06252 -0.2612,-1.64223 -0.025,-0.1699 -0.0523,-0.40831 -0.068,-0.7159 0.2768,-0.30082 0.56297,-0.67032 0.8664,-1.10763 0.12757,-0.18385 0.25645,-0.39036 0.40421,-0.57906 2.79867,0.69823 4.07393,1.21142 3.91375,1.21791 0,0 0,1e-5 0,1e-5 0.1483,0.62755 0.20144,1.12561 0.22177,1.47885 0,0 0,1e-5 0,1e-5 0.0937,1.01743 0.11299,1.8902 0.24563,2.56588 0.48576,2.72468 1.20914,5.54402 1.79361,8.5372 0.18583,0.88233 0.47343,1.94913 0.63764,3.19611 0.0651,0.49446 0.111,1.0177 0.12426,1.57122 0.0272,4.52632 -0.3321,9.1602 -1.90421,13.62079 -1.69909,4.8045 -5.38124,8.77245 -10.17936,10.47967 -1.96452,0.7028 -4.2108,1.08526 -6.57156,0.75283 0,0 -1e-5,0 -1e-5,0 -1.91107,-0.31269 -3.65359,-1.21833 -4.99745,-2.56684 -1.36467,-1.42601 -2.23956,-3.06716 -2.77889,-4.65865 -0.66133,-1.88677 -1.01066,-3.78059 -1.2004,-5.58073 -0.44038,-4.10552 -0.23538,-8.12336 0.13707,-11.78791 0.30477,-3.04516 0.76961,-6.02587 1.23575,-8.77813 0.0284,-0.18046 0.0492,-0.2693 0.0551,-0.26837 0.0317,-0.13924 0.0635,-0.27646 0.0951,-0.41142 0.11075,-0.47369 0.22338,-0.9432 0.33652,-1.40695 0.35052,-1.43715 0.70854,-2.83261 1.08545,-4.20333 0.39664,-1.44676 0.80022,-2.8502 1.30723,-4.25476 0.16918,-0.48021 0.37416,-1.01408 0.66711,-1.57915 0.0766,-0.16745 0.22557,-0.40959 0.46445,-0.70684 -0.0174,-0.23529 0.48982,-0.50646 1.51503,-0.73748 0.8971,0.0267 1.69154,0.39555 2.27992,1.02731 0.56559,0.68537 0.85359,1.36333 0.96676,1.93185 0.3822,1.59903 0.33323,3.10647 0.22272,4.37022 -0.11271,1.53446 -0.33454,3.00629 -0.57587,4.34719 -0.17537,0.97959 -0.37471,1.88511 -0.53783,2.73805 -0.60247,3.18628 -1.05635,5.46967 -1.87011,7.83454 -1.74247,5.02401 -3.77299,7.15261 -4.06152,6.98995 z"
       id="path20"
       inkscape:path-effect="#path-effect20"
       inkscape:original-d="m 107.99283,215.62807 c 3.19512,-5.66735 3.68398,-8.65171 4.6487,-15.01887 0.28327,-1.86957 2.38733,-12.51572 -1.07277,-12.51572 -1.0113,0 -3.55532,12.02159 -3.57593,12.15813 -1.12764,7.47062 -5.57376,35.85925 11.44295,30.03774 9.18985,-3.14389 10.37017,-13.65225 10.37017,-21.81312 0,-1.4501 -0.4384,-2.86767 -0.71518,-4.2911 -0.55775,-2.86844 -1.28013,-5.70452 -1.78796,-8.58222 -0.30222,-1.71258 -0.17049,-4.2911 -0.71518,-4.2911 -0.19333,0 0.64838,4.38148 0.71518,4.6487 0.77712,3.10849 4.35184,14.56401 4.6487,15.37646 1.02596,2.80789 2.39831,5.47687 3.57592,8.22462 0.6104,1.42427 1.12175,2.89206 1.78796,4.2911 0.52762,1.10801 1.10723,2.19723 1.78796,3.21833 0.0661,0.0992 0.38896,0.115 0.35759,0 -0.36709,-1.34601 -1.02947,-2.59718 -1.43036,-3.93351 -1.54803,-5.16008 -3.26795,-12.97103 -3.93352,-17.87961 -0.44958,-3.31569 -0.53932,-6.67117 -0.71518,-10.01258 -0.0626,-1.19033 -0.46256,-2.47736 0,-3.57592 2.47617,-5.88091 6.86954,-2.33644 10.01258,0.35759 0.15057,0.12906 3.57592,2.56637 3.57592,3.57592"
       transform="matrix(0.30068697,0,0,0.31182804,202.92441,8.711084)" />
    <path
       style="fill:#000000;stroke:none;stroke-width:0.603447;stroke-dasharray:none;stroke-opacity:1"
       d="m 140.17613,185.23274 c -0.15601,-0.006 -0.26357,-0.67073 -0.53639,-1.89676 -0.17293,-0.7771 -0.91935,-3.52228 -0.69444,-5.75821 0.2671,-2.45897 0.74855,-6.24521 1.90151,-9.93143 0.92738,-2.9377 2.38036,-6.00112 4.45765,-9.08697 0.63485,-0.93995 1.34632,-1.82097 2.10993,-2.67019 1.10085,-0.68592 2.48284,-1.51465 4.29719,-2.08728 0,0 3e-5,1e-5 3e-5,1e-5 0.15297,0.0695 0.2833,0.20979 0.41451,0.31512 0.33692,0.27047 0.65793,0.51349 0.97085,0.72583 0,0 2e-5,1e-5 2e-5,1e-5 0.0613,0.31334 0.10532,0.6037 0.14357,0.87068 0,0 0,1e-5 0,1e-5 0.0686,0.45744 0.14202,0.96398 0.18692,1.51396 0.26898,3.23189 0.69335,6.68467 0.90496,10.40165 0.13407,2.46502 -0.007,4.87284 0.10655,7.16246 0.8518,17.96799 2.87071,39.28747 4.10891,62.31201 0.23211,4.31614 0.42178,8.56181 0.55728,12.76777 0.23845,7.41825 0.43266,15.28914 0.61574,22.17688 0.093,3.49366 0.16044,6.66888 0.27803,9.98968 0.13227,2.45466 -0.33824,4.32057 0.1724,5.43463 -0.9011,-1.01955 -1.23753,-1.42022 -1.37445,-1.1046 -0.004,-0.11749 -0.16103,0.049 -0.64,0.40543 -0.0191,0.82256 -0.4854,0.23944 -0.13231,-1.3185 0.29194,-2.21595 0.57139,-4.27859 0.78999,-6.36653 0.80042,-7.64618 1.42567,-14.73536 2.15484,-21.06826 0.40976,-3.57933 1.10793,-6.70822 1.30945,-9.5578 0.48583,-6.83675 0.66873,-10.84288 0.59113,-15.24627 0.0247,-1.16448 -0.63538,-2.63044 -0.99686,-3.56279 -1.04841,-2.52837 -0.91794,-4.01263 -0.59908,-4.01263 0.22347,0 0.46661,1.2171 1.75757,3.43946 0.52137,0.85083 1.41508,2.28985 1.65279,4.004 0.53948,4.24988 0.69037,8.83014 0.59113,15.50665 -0.0552,3.13992 -0.60253,6.41561 -0.83611,9.75218 -0.44708,6.31182 -0.82386,13.39979 -1.42108,21.12762 -0.16903,2.17548 -0.40098,4.2953 -0.64037,6.50677 0.14414,0.16237 0.30098,1.52306 -0.84749,3.68778 -0.93888,0.89309 -1.85517,1.25815 -2.5701,1.16635 -0.78019,0.33872 -1.90349,-0.23528 -3.02027,-1.86553 -0.84047,-2.7196 -0.48972,-4.99215 -0.5428,-6.72348 -0.17806,-3.33691 -0.29877,-6.58268 -0.43715,-10.03547 -0.28555,-7.12507 -0.53382,-14.53934 -0.81462,-22.16455 -0.15331,-4.16936 -0.35125,-8.37842 -0.58222,-12.67065 -1.42616,-26.50262 -2.89598,-40.68597 -3.33381,-62.43827 -0.0512,-2.60363 0.16159,-4.97204 0.10655,-7.14124 -0.0849,-3.54703 -0.38403,-7.00476 -0.5254,-10.33869 -0.0142,-0.39444 -0.0613,-0.8319 -0.10809,-1.29829 0,0 0,-1e-5 0,-1e-5 -0.0272,-0.25712 -0.0505,-0.48517 -0.0818,-0.68683 0,0 3e-5,0 3e-5,0 0.28385,0.0505 0.57522,0.13135 0.86576,0.24455 0.1131,0.0441 0.2289,0.0619 0.32482,0.1599 0,0 2e-5,2e-5 2e-5,2e-5 -0.26353,0.46945 -0.52741,1.37605 -0.94349,2.3155 -0.72559,0.7399 -1.38005,1.46806 -1.94679,2.22441 -2.06368,2.76005 -3.56344,5.47288 -4.59315,8.10523 -1.28391,3.25779 -2.10808,7.01784 -2.63619,9.35079 -0.36824,1.45808 -0.13042,4.72194 -0.14018,5.37573 -0.0198,1.32542 -0.22268,1.99382 -0.37547,1.98816 z"
       id="path21"
       inkscape:path-effect="#path-effect21"
       inkscape:original-d="m 140.17613,185.23274 c 0.0967,-2.60968 -0.8077,-4.80882 -0.35759,-7.50943 1.22943,-7.37664 2.55608,-12.25391 6.79425,-18.23721 0.79246,-1.11876 3.06693,-3.85781 4.6487,-4.64869 0.1059,-0.053 0.33514,2.14399 0.35759,2.50314 0.21613,3.45819 0.57387,6.90812 0.71518,10.37017 0.0972,2.38197 -0.0803,4.76925 0,7.15185 0.84515,25.07267 3.42708,50.03764 4.29111,75.09435 0.25481,7.38969 0.46885,14.78074 0.71518,22.17071 0.11126,3.3378 0.20931,6.67623 0.35759,10.01258 0.0901,2.02787 -0.31798,4.16494 0.3576,6.07906 0.19835,0.56203 1.40009,0.45252 1.78796,0 0.54852,-0.63992 0.25717,-1.66629 0.35759,-2.50314 0.2572,-2.14336 0.51974,-4.28675 0.71518,-6.43665 0.63899,-7.02887 1.13424,-14.07044 1.78796,-21.09794 0.29993,-3.22421 0.93413,-6.41982 1.07278,-9.65499 0.21946,-5.12078 0.37178,-10.26448 0,-15.37646 -0.19533,-2.68579 -2.50315,-4.90012 -2.50315,-7.50944"
       transform="matrix(0.30068697,0,0,0.31182804,202.92441,8.711084)" />
    <path
       style="fill:#000000;stroke:none;stroke-width:0.603447;stroke-dasharray:none;stroke-opacity:1"
       d="m 115.50227,183.08719 c -0.12517,-0.67745 7.7564,-2.70279 20.45911,-5.92276 12.70271,-3.21996 30.21032,-7.75275 49.56767,-12.83262 20.4003,-5.35356 35.90688,-9.33901 49.80284,-12.43751 12.84227,-2.86354 20.89845,-4.16285 21.0617,-3.49355 0.16324,0.66929 -7.58257,3.17777 -20.17536,6.91098 -11.37959,3.37355 -31.24669,9.08184 -49.42197,13.84978 -20.07327,5.26584 -36.44468,8.97445 -50.08646,11.44989 -12.95218,2.35029 -21.08236,3.15324 -21.20753,2.47579 z"
       id="path22"
       inkscape:path-effect="#path-effect22"
       inkscape:original-d="m 115.50227,183.08719 c 47.59986,-8.79456 93.90162,-23.22554 140.89131,-34.68644"
       transform="matrix(0.30068697,0,0,0.31182804,202.92441,8.711084)" />
    <path
       style="fill:none;stroke:#000000;stroke-width:0.499999;stroke-dasharray:none;stroke-opacity:1"
       d="M 22.603728,120.99039 H 225.07748"
       id="path23"
       inkscape:path-effect="#path-effect23"
       inkscape:original-d="m 22.603728,120.99039 c 67.279172,-0.10613 134.876222,0.42447 202.473752,0"
       transform="matrix(1.1131298,0,0,1.1131298,4.5177239,-45.910962)"
       sodipodi:nodetypes="cc" />
    <path
       style="display:inline;fill:none;stroke:#000000;stroke-width:0.499999;stroke-dasharray:none;stroke-opacity:1"
       d="M 22.603728,120.99039 H 225.07748"
       id="path23-7"
       inkscape:path-effect="#path-effect23-1"
       inkscape:original-d="m 22.603728,120.99039 c 67.279172,-0.10613 134.876222,0.42447 202.473752,0"
       transform="matrix(1.1131298,0,0,1.1131298,4.5177239,-45.115621)"
       sodipodi:nodetypes="cc" />
    <rect
       style="display:inline;fill:#ffffff;fill-opacity:1;stroke:none;stroke-width:0.222626;stroke-dasharray:none;stroke-opacity:1"
       id="rect23"
       width="33.729385"
       height="11.089113"
       x="122.48666"
       y="83.859428" />
    <text
       xml:space="preserve"
       style="font-size:7.85375px;font-family:C059;-inkscape-font-specification:C059;text-align:start;writing-mode:lr-tb;direction:ltr;text-anchor:start;fill:none;stroke:#000000;stroke-width:0.222626;stroke-dasharray:none;stroke-opacity:1"
       x="125.59277"
       y="91.558975"
       id="text23"><tspan
         sodipodi:role="line"
         id="tspan23"
         style="font-style:italic;font-variant:normal;font-weight:normal;font-stretch:normal;font-size:7.85375px;font-family:P052;-inkscape-font-specification:'P052 Italic';fill:#ffffff;fill-opacity:1;stroke:#000000;stroke-width:0.222626;stroke-dasharray:none;stroke-opacity:1"
         x="125.59277"
         y="91.558975">Portfolio</tspan></text>
    <path
       style="display:inline;fill:#000000;fill-rule:nonzero;stroke:none;stroke-width:2.64583;stroke-opacity:1"
       d="m 84.903502,47.08557 c 0,0 -4.843087,-1.210766 -4.843087,-1.210766 -0.05933,0.237314 -0.09392,0.424678 -0.09327,0.511281 1.45e-4,0.01933 0.0023,0.03392 0.0075,0.03727 0.0049,0.0031 0.01332,-0.0027 0.0298,-0.03891 0.0087,-0.01909 0.01956,-0.04612 0.03893,-0.09889 0.0098,-0.02659 0.02172,-0.05994 0.0396,-0.109098 0.0139,-0.03822 0.04493,-0.123448 0.08249,-0.217888 0.01972,-0.04958 0.04918,-0.121842 0.08675,-0.206427 0.03474,-0.07822 0.09576,-0.210915 0.181397,-0.368689 0.0685,-0.126194 0.243411,-0.439608 0.532793,-0.790662 0.147928,-0.179453 0.406531,-0.468235 0.783937,-0.760321 0.360751,-0.279195 1.030888,-0.717906 1.9884,-0.919481 0.497116,-0.104652 1.059019,-0.141803 1.657408,-0.06164 0.601084,0.08052 1.158289,0.268753 1.651573,0.531779 0.484967,0.258635 0.867055,0.567004 1.15856,0.858874 0.28866,0.289023 0.500988,0.574075 0.654057,0.81248 0.29467,0.458948 0.450785,0.872212 0.531378,1.118853 0.08596,0.263073 0.133829,0.48609 0.161251,0.636815 0.05335,0.293236 0.06741,0.527306 0.07246,0.645032 0.0057,0.133743 0.0045,0.241916 0.0026,0.312552 -0.0038,0.13934 -0.01355,0.242382 -0.01932,0.295749 -0.0065,0.06013 -0.01321,0.104971 -0.01835,0.135253 -0.01023,0.06034 -0.01948,0.0943 -0.02594,0.11306 -0.01301,0.03779 -0.02338,0.03979 -0.0309,0.03152 -0.0148,-0.01629 -0.02636,-0.08055 -0.03553,-0.16505 -0.0099,-0.09153 -0.01632,-0.192546 -0.02733,-0.37807 -0.0045,-0.07505 -0.0124,-0.211279 -0.02316,-0.344819 -0.0098,-0.121825 -0.03055,-0.357633 -0.07736,-0.626169 -0.02422,-0.138969 -0.06315,-0.332578 -0.127019,-0.555508 -0.06101,-0.212943 -0.16734,-0.533014 -0.352909,-0.893667 -0.180036,-0.349898 -0.502911,-0.871925 -1.055161,-1.362474 -0.587431,-0.521801 -1.389238,-0.962829 -2.365301,-1.111013 -0.462562,-0.07023 -0.901595,-0.06443 -1.300112,-0.01018 -0.393364,0.05355 -0.734029,0.151912 -1.01969,0.262148 -0.549213,0.211939 -0.945771,0.488498 -1.188706,0.683923 -0.463581,0.372921 -0.731543,0.745524 -0.843297,0.911011 -0.13411,0.198594 -0.221797,0.368692 -0.276455,0.485369 -0.05694,0.121544 -0.09887,0.229977 -0.130457,0.320145 -0.0605,0.172687 -0.105368,0.34358 -0.141908,0.49294 -0.07521,0.30741 -0.145268,0.637563 -0.248261,1.079524 -0.100868,0.432836 -0.225989,0.950009 -0.399255,1.633115 0.01857,0.635202 0.182515,1.143586 0.385036,1.518463 0.194088,0.35927 0.427686,0.608084 0.654526,0.797383 l 0.130055,-0.437499 c -0.470352,2.706028 -0.764741,4.891746 -1.27817,7.263395 l 0.03731,-0.07714 c -0.207522,0.638697 -0.30284,1.046501 -0.346785,1.338311 -0.02322,0.154205 -0.03235,0.278136 -0.03466,0.383435 -0.0024,0.109397 0.0025,0.204352 0.0087,0.287709 0.0066,0.08985 0.01507,0.170763 0.0198,0.252298 0.0051,0.08863 0.0057,0.176067 -0.0044,0.277147 -0.02369,0.238527 -0.108074,0.540946 -0.269641,0.917936 0.160175,-0.373742 0.320611,-0.651939 0.475477,-0.829194 0.06598,-0.07552 0.130551,-0.132961 0.19862,-0.18057 0.06446,-0.04508 0.126288,-0.0777 0.200466,-0.116326 0.0683,-0.03557 0.14476,-0.07517 0.235088,-0.132926 0.08608,-0.05504 0.186229,-0.127466 0.305575,-0.230315 0.224914,-0.193824 0.524969,-0.501427 0.947353,-1.032951 -0.03228,0.04062 -0.06475,0.08107 -0.09742,0.121371 0,0 0.13473,-0.198515 0.13473,-0.198515 1.442289,-2.129255 2.660749,-4.060371 4.103038,-6.189625 -4.4368,6.53528 -8.146037,13.535906 -11.06164,20.877182 1.256209,-8.151858 5.194419,-15.652214 11.191695,-21.314681 0.334229,-0.315569 0.620472,-0.572022 0.90356,-0.710964 0.292495,-0.143558 0.550528,-0.13891 0.733913,0.03724 0.269505,-0.597708 0.488161,-1.037306 0.662019,-1.346771 0.177552,-0.31604 0.315048,-0.506876 0.39139,-0.55117 0.03777,-0.02192 0.06369,-0.0073 0.05166,0.0724 -0.006,0.03965 -0.02273,0.101544 -0.05967,0.18912 -0.03465,0.08217 -0.101746,0.221141 -0.220872,0.399773 -0.09629,0.144386 -0.348764,0.500907 -0.801315,0.86527 -0.237003,0.190818 -0.628062,0.464189 -1.172337,0.674277 -0.283167,0.109302 -0.621459,0.207057 -1.012566,0.260321 -0.396252,0.05396 -0.833138,0.05978 -1.293664,-0.01012 -0.971972,-0.147535 -1.770135,-0.586714 -2.354336,-1.105597 -0.548986,-0.487605 -0.869042,-1.00563 -1.046603,-1.350564 -0.183062,-0.355618 -0.287339,-0.669825 -0.346559,-0.875949 -0.06206,-0.216013 -0.09963,-0.402191 -0.122682,-0.532699 -0.04393,-0.248644 -0.06481,-0.470744 -0.07392,-0.568013 -0.01188,-0.126929 -0.01859,-0.209998 -0.02537,-0.274583 -0.01353,-0.128872 -0.02676,-0.188167 -0.04233,-0.223588 -0.01512,-0.03441 -0.03449,-0.04737 -0.05403,-0.02894 -0.01,0.0094 -0.02311,0.02984 -0.03748,0.07879 -0.0072,0.02457 -0.01724,0.06486 -0.02786,0.12907 -0.0054,0.03238 -0.01226,0.07934 -0.01888,0.141044 -0.0059,0.05496 -0.01571,0.159578 -0.01954,0.299948 -0.0019,0.0712 -0.0032,0.179883 0.0026,0.314041 0.0051,0.118146 0.01917,0.352572 0.07257,0.646082 0.02745,0.150863 0.07534,0.374 0.161339,0.637175 0.08063,0.246742 0.236779,0.660089 0.53149,1.119101 0.15309,0.238437 0.365439,0.523517 0.654122,0.812562 0.291527,0.291893 0.673639,0.600279 1.158326,0.858765 0.493613,0.263202 1.050844,0.451444 1.651955,0.531967 0.598415,0.08016 1.160345,0.04301 1.65749,-0.06165 0.957569,-0.201587 1.627768,-0.640329 1.988584,-0.919574 0.377473,-0.292137 0.636145,-0.58099 0.784147,-0.760533 0.289532,-0.351236 0.464607,-0.664906 0.533288,-0.791441 0.08582,-0.158119 0.147038,-0.29123 0.181996,-0.369952 0.03779,-0.0851 0.06748,-0.157921 0.08745,-0.208179 0.03822,-0.09617 0.06953,-0.182318 0.08424,-0.222939 0.01167,-0.03222 0.03015,-0.08404 0.04182,-0.116255 0.02125,-0.05893 0.03363,-0.09168 0.04487,-0.119876 0.02035,-0.05109 0.03666,-0.08545 0.04839,-0.110037 0.01408,-0.02952 0.02391,-0.04961 0.03632,-0.07735 0.05045,-0.112759 0.100442,-0.26813 0.156733,-0.493296 0,0 -4.843087,-1.210766 -4.843087,-1.210766 z"
       id="path6"
       transform="matrix(1.1131298,0,0,1.1131298,7.5774816,-19.540723)"
       inkscape:original-d="m 84.903502,47.08557 c -0.505179,2.020726 0.545584,-2.041171 -1.195824,2.989558 -0.166214,0.480174 -0.199303,0.996522 -0.298955,1.494782 -0.896869,2.242169 -1.73472,4.508858 -2.690604,6.72651 -1.226248,2.277319 -0.756549,1.267024 -1.494779,2.989559"
       inkscape:path-effect="#path-effect6" />
    <path
       style="fill:#000000;stroke:none;stroke-width:0.499999;stroke-dasharray:none;stroke-opacity:1"
       d="m 32.346482,130.85622 c -0.238881,0.046 -0.820516,-1.18858 -0.183462,-3.61508 0.286988,-1.17068 0.827786,-2.63481 1.805617,-4.15186 10e-7,0 2e-6,0 2e-6,0 0.630745,-1.01708 1.601159,-2.24796 3.117593,-3.06108 1.264674,-0.62888 2.925209,-0.64842 4.349862,0.34818 1.039425,0.98083 1.436489,2.21027 1.344514,3.22439 0.01297,0.99895 -0.121739,1.85319 -0.05501,2.49681 0.101432,1.24737 0.351201,2.9326 0.118903,4.75078 -0.270914,1.96044 -0.567415,4.30834 -1.149474,6.60603 -0.06249,0.31889 -0.199788,0.79635 -0.499676,1.39404 0,0 0,1e-5 0,1e-5 0.0025,0.28011 -0.460825,0.69112 -1.424594,1.15385 0,0 -4.4e-5,2e-5 -4.4e-5,2e-5 -0.426453,0.17925 -0.253585,0.0517 0.565735,-0.32534 0.451251,-0.61808 0.627498,-0.75731 0.425192,-0.51296 -0.299356,1.15314 -0.350025,2.43826 -0.532075,4.00694 -0.294078,2.84884 -0.388799,5.89678 0.154083,8.79226 -0.371698,-0.92602 -0.618636,-1.35318 -0.841851,-1.26688 -0.09623,-0.61053 -0.911978,-0.30984 -2.610235,0.78971 -0.02518,0.46384 -0.223882,0.0886 -0.02832,-0.90962 0,0 2e-6,-1e-5 2e-6,-1e-5 0.261424,-2.38145 0.363429,-4.97888 0.800956,-7.75913 0.357121,-2.21188 0.896626,-4.31534 1.460698,-6.41959 1.120296,-3.96912 3.344775,-7.23357 5.618852,-10.24219 1.387177,-1.85192 2.930514,-3.30065 4.334018,-4.69925 0,0 -10e-7,0 -10e-7,0 -0.03834,0.0451 0.109819,-0.15472 0.504369,-0.54518 0.161432,-0.84673 1.506516,-0.93926 3.889033,-0.0453 1.042493,1.85405 1.197634,2.89637 0.807623,2.90162 -0.08127,0.6916 -0.211762,1.29287 -0.341304,1.80996 0,0 -2e-6,0 -2e-6,0 -0.248817,1.04593 -0.544726,1.86425 -0.653226,2.50038 -0.213992,1.15962 -0.429534,2.32667 -0.633352,3.48525 -0.330637,1.87948 -0.627577,3.72054 -0.854252,5.54867 -0.218896,1.77603 -0.386231,3.48847 -0.410209,5.15933 0.01416,1.38299 -0.0114,2.54438 0.308529,3.39264 -0.216623,-0.20237 -0.04421,-0.21696 0.232115,0.0582 0,0 -3.3e-5,0 -3.3e-5,0 -1.48511,-0.11106 -2.052002,-0.19094 -1.859747,0.0917 0.101585,-0.053 0.252252,-0.30459 0.516004,-0.66759 0,0 3e-6,-1e-5 3e-6,-1e-5 0.465307,-0.69811 0.877794,-1.51594 1.304069,-2.38635 1.930876,-3.98077 3.559655,-8.14935 5.030376,-12.08634 0.886002,-2.37584 1.695397,-4.64785 2.413793,-6.91233 l 0,0 c 0.05954,-0.14712 0.0974,-0.43057 0.172683,-0.82256 l 0,0 1e-6,0 0,0 c 0.02844,-0.16344 0.05454,-0.32038 0.07687,-0.47153 l 0,0 c 0,0 7.6e-5,1e-5 7.6e-5,1e-5 0.717491,0.0487 1.431871,0.11291 2.141924,0.19238 0,0 7.5e-5,1e-5 7.5e-5,1e-5 10e-7,0 10e-7,0 10e-7,0 0.0079,-0.014 0.01572,-0.0281 0.02287,-0.0423 0.0029,-0.006 0.0081,-0.0126 0.0073,-0.0175 -0.0044,0.009 0.0017,0.0223 0.0037,0.0343 0.0051,0.0321 0.01132,0.0644 0.01754,0.0966 0.37789,1.95707 0.582058,3.55432 1.098685,5.11038 -0.168052,1.55974 -0.05642,3.2748 -0.09757,5.07391 -0.08023,3.64107 -0.38744,6.93331 -0.443912,9.92678 -0.06262,3.46862 0.260443,6.43822 0.953807,9.08516 0,0 10e-7,0 10e-7,0 0.59373,2.21429 0.716021,3.42843 1.351019,4.97954 0.284466,0.58475 0.422955,1.0115 0.691369,1.17171 0.01819,0.16308 0.379835,0.10335 0.654787,0.008 1.103468,-0.57674 1.960475,-0.90387 2.562344,-1.28853 1.015447,-0.59263 1.54557,-1.35209 1.694897,-1.24009 0.149327,0.11199 0.132795,0.86456 -0.995762,2.07255 -0.721691,0.7535 -1.337152,1.09859 -2.392535,1.86811 -0.606499,0.45009 -1.519488,0.66426 -2.521504,0.20045 -0.790549,-0.49166 -1.310937,-1.19015 -1.629328,-1.86773 -0.915498,-1.70554 -1.2773,-3.15579 -1.973761,-5.11207 0,0 -10e-7,-1e-5 -10e-7,-1e-5 -1.007076,-2.84824 -1.620898,-6.11073 -1.767805,-9.83744 -0.128713,-3.1563 0.0055,-6.51237 -0.07477,-9.9664 -0.03931,-1.52189 -0.218167,-3.45222 -0.106991,-5.39828 0.778955,-1.8379 1.859263,-3.45312 2.872458,-5.00155 0.01671,-0.0255 0.03348,-0.0511 0.0513,-0.0763 0.0068,-0.009 0.0096,-0.0204 0.02204,-0.0264 0.0067,0.007 0.0067,0.0149 0.0089,0.0223 0.0054,0.018 0.01014,0.0359 0.01483,0.0539 -1e-6,0 0,0 0,0 0,0 7.4e-5,2e-5 7.4e-5,2e-5 0.698866,0.19149 1.399234,0.3675 2.102328,0.52801 0,0 7.5e-5,2e-5 7.5e-5,2e-5 l 0,0 c -0.02327,0.20306 -0.04919,0.39988 -0.07627,0.59083 l 0,0 -10e-7,0 0,0 c -0.04118,0.35136 -0.109731,0.82562 -0.268339,1.40581 l 0,0 c -0.676912,2.38644 -1.448044,4.76161 -2.291149,7.20249 -1.391266,4.03588 -2.988969,8.36464 -4.967624,12.61462 -0.435069,0.94294 -0.93645,1.94939 -1.57623,2.95958 0,0 -4e-6,1e-5 -4e-6,1e-5 -0.279541,0.47682 -0.709318,1.06378 -1.36069,1.67882 -0.282743,0.70337 -1.516766,1.02894 -3.57203,0.63295 0,0 -4.6e-5,0 -4.6e-5,0 -1.001638,-0.37047 -2.026885,-1.3138 -2.708475,-2.88239 -0.570444,-1.82259 -0.644521,-3.53248 -0.59569,-5.00811 0.01982,-1.93926 0.189871,-3.8365 0.418558,-5.70631 0.237065,-1.94931 0.543355,-3.87714 0.881933,-5.80573 0.208894,-1.1899 0.428526,-2.37128 0.646505,-3.5335 0.224277,-1.15257 0.540814,-2.05429 0.717762,-2.76259 0,0 2e-6,-1e-5 2e-6,-1e-5 0.111112,-0.47446 0.207005,-0.86603 0.237729,-1.18381 -0.323941,-0.59024 0.0019,-0.27123 0.621952,1.16037 2.143558,0.65511 3.092341,0.78528 3.006856,0.168 0.07535,-0.0936 -0.03186,0.0651 -0.377798,0.41777 0,0 -1.1e-5,1e-5 -1.1e-5,1e-5 -1.498095,1.503 -2.889714,2.75074 -3.899634,4.12253 -2.19425,3.0005 -4.188986,5.66404 -4.96727,8.57757 -0.589748,2.07836 -1.133394,4.00918 -1.479892,5.93089 -0.444776,2.40328 -0.604537,4.9511 -0.963398,7.53193 0,0 10e-7,1e-5 10e-7,1e-5 0.04864,0.19435 0.02451,1.14115 -0.616437,2.61908 -1.820391,1.30296 -2.952094,1.52217 -3.255906,0.79875 -0.464251,-0.0451 -0.955736,-0.66811 -1.372416,-1.86404 -0.526817,-3.52342 -0.315708,-6.95703 0.154083,-10.02752 0.203352,-1.41789 0.357345,-2.9055 0.825345,-4.5195 -0.117115,-0.068 0.128539,-0.56805 0.826842,-1.39205 0.916326,-0.46037 1.248141,-0.58859 0.945494,-0.43972 0,0 -3.4e-5,2e-5 -3.4e-5,2e-5 -0.740579,0.40555 -1.059379,0.60554 -0.94463,0.68566 0,0 5e-6,0 5e-6,0 0.03895,-0.006 0.08068,-0.20724 0.202634,-0.54651 0.607969,-1.9525 1.010438,-4.19529 1.410588,-6.16625 0.263975,-1.09546 0.110009,-2.61694 0.118903,-4.071 0.0057,-1.12725 0.201283,-1.98391 0.241648,-2.65231 -0.06513,-0.61173 0.02012,-1.07274 -0.12839,-1.03637 -0.323958,-0.40351 -1.081954,-0.46292 -1.609142,-0.26278 -0.955749,0.33109 -1.816073,1.23708 -2.507553,2.03201 0,0 -2e-6,0 -2e-6,0 -1.005655,1.20026 -1.682685,2.41077 -2.144273,3.40511 -0.879921,2.0031 -0.882464,3.12051 -1.116714,3.16558 z"
       id="path13"
       transform="matrix(0.43934332,0,0,0.311432,92.963971,-7.7951806)"
       inkscape:original-d="m 32.346482,130.85622 c -0.681467,-3.54163 4.447778,-12.43858 8.23365,-9.40988 1.234178,0.98734 0.533649,3.12536 0.588119,4.70494 0.05067,1.46942 0.247446,2.96156 0,4.41089 -2.383052,13.95787 -1.626553,2.16668 -2.94059,12.35047 -0.349906,2.71177 -0.443106,6.75125 0,9.40989 0.03603,0.21619 0.47535,0.482 0.588118,0.29406 0.306758,-0.51127 0.220105,-1.17273 0.294058,-1.76436 0.318202,-2.54561 0.451702,-5.11649 0.882177,-7.64553 0.355057,-2.08595 0.907603,-4.13547 1.470295,-6.17524 0.912071,-3.30626 3.565882,-7.08713 5.293061,-9.40988 1.200086,-1.61391 2.694696,-2.98876 4.116826,-4.41089 0.249902,-0.2499 0.632275,-0.83802 0.882177,-0.58811 0.494307,0.4943 -0.724736,4.15274 -0.882177,4.999 -0.667163,3.58599 -2.864128,14.63828 -1.470295,18.81977 0.219179,0.65753 0.850363,1.16033 1.470295,1.47029 1.010828,0.50542 2.696276,-2.98341 3.234648,-4.11682 1.905558,-4.01171 3.49845,-8.17037 4.999,-12.35048 0.837811,-2.3339 1.63993,-4.68227 2.352471,-7.05741 0.171326,-0.57109 0.400717,-2.35097 0.294061,-1.76435 -1.188797,6.53837 -0.882176,3.51351 -0.882176,10.29206 0,7.30408 -0.88427,12.75087 1.176234,19.40789 1.024043,3.30844 1.938705,7.99063 4.410885,6.46929 2.948204,-1.81428 2.384043,-1.31635 3.822766,-3.23464"
       inkscape:path-effect="#path-effect13" />
    <path
       style="fill:#000000;stroke:none;stroke-width:0.499999;stroke-dasharray:none;stroke-opacity:1"
       d="m 75.867203,129.38593 c 0.318907,0.25177 -0.264421,1.5937 -1.755439,3.69404 -1.089895,1.5353 -4.287923,5.3214 -5.275437,8.25885 -0.905607,2.02546 0.03361,4.28038 0.498885,8.02775 -0.213768,-0.3047 -0.100715,-0.68495 0.459201,0.0794 0.573053,0.31891 0.86561,0.59701 0.881504,0.50157 -0.339333,0.0103 -0.353871,-0.0646 0.03791,-0.0867 0.328406,-0.0727 0.681442,-0.17822 1.067209,-0.30093 0.363369,-0.11793 0.710352,-0.23936 1.03332,-0.37228 0,0 3e-6,0 3e-6,0 0.394087,-0.23871 0.370762,-0.14336 -0.0426,0.10138 1.239031,-1.0994 2.368214,-2.37222 3.348511,-3.79318 1.89079,-2.74071 3.066681,-5.79368 3.551928,-8.80295 0.319416,-2.02434 0.276928,-3.95918 -0.193818,-5.66464 -0.545555,-1.76758 -1.504172,-3.21842 -2.749101,-3.64038 0,0 -10e-7,0 -10e-7,0 -0.618452,-0.42009 -1.879738,-0.10829 -3.022519,0.15192 -1.28999,0.36563 -2.617866,0.97691 -3.645243,1.45424 -1.530522,0.73926 -2.636396,0.96786 -3.410049,1.25293 -0.06981,-0.01 -0.148221,-0.0205 -0.180221,-0.0124 -0.287501,0.40683 -0.402487,0.91578 -0.602043,0.91578 -0.113122,0 -0.508915,-0.30268 -0.53588,-1.13815 0.03728,-0.34936 0.199026,-0.72396 0.518169,-0.98632 0.695816,-0.67763 1.860674,-1.35694 2.882813,-2.18855 0.956506,-0.74612 2.245496,-1.65204 3.796749,-2.37443 1.25996,-0.65827 3.14789,-1.25995 5.414665,-0.72435 10e-7,0 4e-6,0 4e-6,0 2.671065,0.88339 4.847824,3.08748 5.759681,5.96277 0.813381,2.38522 1.0562,5.01503 0.707286,7.66881 -0.480058,3.74853 -1.856801,7.54402 -4.198889,10.94637 -1.213052,1.76221 -2.627646,3.33384 -4.191736,4.68716 -0.816895,0.59194 -1.311302,0.8041 -1.408104,0.76273 0,0 -3e-6,1e-5 -3e-6,1e-5 -0.481322,0.18318 -0.951528,0.33605 -1.404805,0.46764 -0.476368,0.1407 -0.984355,0.27161 -1.527515,0.37647 -0.229623,0.10277 -0.838693,0.17741 -1.797382,0.0871 -1.432144,-0.3366 -2.392877,-0.94483 -2.956989,-1.49276 -0.723331,-0.28454 -1.652282,-1.3445 -2.171602,-3.21934 -0.491261,-3.32898 -0.988004,-6.729 0.498885,-10.20391 2.055675,-3.996 5.659621,-6.92775 7.231257,-8.2158 1.923966,-1.57679 3.086724,-2.41243 3.381399,-2.17979 z"
       id="path14"
       transform="matrix(0.43934332,0,0,0.311432,92.963971,-7.7951806)"
       inkscape:original-d="m 75.867203,129.38593 c -2.940589,3.72475 -6.929569,6.82218 -8.821766,11.17424 -1.211575,2.78662 -0.406924,6.10459 0,9.11583 0.138774,1.02693 2.290747,2.48921 3.234648,2.64653 0.766818,0.1278 3.767592,-0.87066 4.116824,-1.17624 4.559585,-3.98964 6.80884,-8.25798 7.645532,-14.11483 0.569653,-3.98757 -0.202811,-9.96759 -4.704943,-11.4683 -2.505019,-0.835 -6.098037,1.21921 -7.93959,2.35247 -3.68554,2.26803 -3.528708,1.24239 -3.528708,3.23465"
       inkscape:path-effect="#path-effect14" />
    <path
       style="fill:#000000;stroke:none;stroke-width:0.499999;stroke-dasharray:none;stroke-opacity:1"
       d="m 85.838749,135.22904 c -0.122575,-0.22298 0.637317,-0.82055 1.676249,-2.13448 1.385865,-1.75269 1.945833,-3.01038 3.730976,-6.47238 0.308888,-0.63059 0.59076,-1.30255 0.87328,-2.04276 l 0,0 c -0.122202,0.43858 -0.17297,0.60609 -0.122117,0.50518 l 0,0 3e-6,0 0,0 c -0.03288,-0.13111 0.479762,-0.12671 1.53871,0.0554 0,0 0,0 0,0 -3.17e-4,-0.003 -4.41e-4,-0.003 -2.11e-4,0.001 2.95e-4,0.005 0.0014,0.0108 0.0025,0.0162 0.43371,2.24075 0.377861,4.48075 0.979566,6.48978 -0.07435,2.89099 0.08443,5.81537 0.01008,8.70636 -0.0576,2.26419 -0.193127,4.56158 -0.380465,6.9772 -0.119056,1.03176 -0.330325,1.39826 -0.22831,1.10443 -0.273963,-0.54927 -1.723041,-0.77131 -4.374699,-0.73269 0,0 -2.71e-4,0 -2.71e-4,0 -0.04023,0.13759 -0.05135,0.134 -0.01306,-0.0101 0,0 10e-7,-1e-5 10e-7,-1e-5 0.04336,-0.21995 0.08353,-0.46429 0.130032,-0.73603 0.134612,-0.82458 0.171825,-1.96381 0.524134,-3.37684 0.690373,-2.64195 1.463026,-5.60582 2.647599,-8.5054 1.096827,-2.63762 2.487047,-4.99071 3.891589,-7.32759 0.898436,-1.50439 1.807871,-2.96157 2.73136,-4.44939 0.481427,-0.77561 0.953956,-1.53923 1.418156,-2.30229 0.3731,-0.61786 0.71078,-1.16118 0.96345,-1.66988 -1.40657,-0.26254 -0.60662,0.76471 2.22569,3.33724 0,0 1.5e-4,-1e-4 1.5e-4,-1e-4 2.36968,-1.63429 3.17919,-2.50613 2.37257,-2.77732 0,0 -5e-5,-2e-5 -5e-5,-2e-5 -0.0187,-0.21652 0.0417,0.0607 0.11315,0.81789 0,0 0,1e-5 0,1e-5 -0.0328,1.15924 -0.18965,2.15089 -0.29865,2.97545 -0.36765,2.61561 -0.70584,5.02193 -0.80768,7.40292 -0.1511,3.36999 -0.10612,6.7094 -0.16504,9.9588 -0.15161,8.53135 0.15268,15.05087 0.92082,21.11396 -1.14198,-1.73213 -1.96559,-1.83896 -2.81679,-0.38341 0.95867,-1.88964 1.70552,-3.4582 2.3484,-5.03209 0.52824,-1.28387 1.15112,-3.1389 1.50437,-4.11503 0,0 0,0 0,0 1.06167,-2.93173 1.7808,-4.53481 2.11113,-4.45223 0.33033,0.0826 0.24498,1.82796 -0.25008,4.93221 0,0 0,0 0,0 -0.18166,1.14935 -0.45742,2.83514 -0.88856,4.46067 -0.46264,1.73835 -1.08014,3.52209 -1.87753,5.53267 -0.93889,1.65089 -2.16493,1.56433 -3.34502,-0.38341 -1.34137,-6.0935 -2.09868,-13.05707 -2.2486,-21.67334 -0.0564,-3.0388 -0.19602,-6.68145 -0.11741,-10.12054 0.0681,-2.68722 0.38157,-5.27849 0.72941,-7.90972 0.12851,-0.91707 0.26243,-1.68619 0.22959,-2.30692 0,1e-5 0,0 0,0 0.0715,0.53313 0.044,0.59414 -0.0189,0.15759 0,0 -5e-5,-3e-5 -5e-5,-3e-5 -0.83812,-0.42915 -0.0264,-1.53915 2.50462,-3.17349 0,0 1.6e-4,-1e-4 1.6e-4,-1e-4 3.03032,2.57232 3.72147,3.95055 2.22569,3.86548 -0.38111,0.75883 -0.78155,1.42289 -1.14951,2.02778 -0.47585,0.78801 -0.95682,1.56838 -1.44185,2.34989 -0.93455,1.50579 -1.82877,2.92737 -2.70922,4.38092 -1.411481,2.34566 -2.714755,4.45802 -3.654981,6.65832 -1.071707,2.45941 -1.852996,5.23652 -2.634785,7.87 -0.23163,0.67941 -0.277321,1.70854 -0.532342,2.96202 -0.05405,0.26452 -0.112417,0.55103 -0.184261,0.86028 0,0 0,0 0,0 -0.0053,0.0562 -0.05374,0.25317 -0.16328,0.58301 0,0 -2.74e-4,1e-5 -2.74e-4,1e-5 -2.68124,0.12062 -4.164456,-0.17282 -4.438419,-0.80916 0.102015,-1.19993 0.332838,-1.6783 0.29993,-1.53677 0.275993,-2.37094 0.507559,-4.57896 0.676011,-6.757 0.234193,-2.9901 0.261914,-5.94571 0.538314,-8.72552 0.908156,-2.79196 2.130573,-4.90766 2.564282,-6.71618 0.001,-0.004 0.002,-0.009 0.0038,-0.0131 0.0014,-0.003 0.0032,-0.003 0.0051,0.001 0,0 0,0 0,0 1.0803,0.25078 1.593631,0.36416 1.562927,0.30468 l 0,0 3e-6,0 0,0 c 0.0541,0.003 0.01124,0.28009 -0.152961,0.81303 l 0,0 c -0.389849,0.77281 -0.796747,1.49786 -1.239672,2.18316 -1.922988,3.0515 -3.412889,4.88027 -5.127122,6.14916 -1.509819,1.11758 -2.54904,1.3141 -2.671615,1.09112 z"
       id="path16"
       transform="matrix(0.43934332,0,0,0.311432,92.963971,-7.7951806)"
       inkscape:original-d="m 85.838749,135.22904 c 2.983256,-1.6399 4.949163,-5.02939 6.602981,-7.92357 0.390684,-0.6837 0.736661,-1.39337 1.056476,-2.11296 0.03576,-0.0804 0,-0.35215 0,-0.26412 0,2.23365 -0.650626,4.38255 -0.792358,6.60298 -0.185153,2.90075 -0.116515,5.81304 -0.264118,8.71594 -0.116586,2.29283 -0.307099,4.58198 -0.528238,6.8671 -0.04324,0.44683 -0.26412,0.87168 -0.26412,1.3206 0,0.36299 0.197223,-0.6997 0.26412,-1.05648 0.197382,-1.05271 0.240339,-2.1378 0.528238,-3.16943 0.77084,-2.76218 1.528352,-5.54471 2.641192,-8.1877 1.606947,-3.8165 5.813948,-10.25331 7.923578,-13.7342 0.36789,-0.60702 0.73904,-1.21397 1.05648,-1.84883 0.0394,-0.0787 0.088,-0.26412 0,-0.26412 -0.17608,0 0,0.35216 0,0.52824 0,1.87434 0.0579,0.27975 -0.26412,2.64119 -0.99298,7.28183 -0.79236,7.23636 -0.79236,17.69599 0,7.37277 0.33216,14.19145 1.58471,21.39365 0.0151,0.0867 0.228,0.0803 0.26412,0 0.77823,-1.7294 1.51325,-3.48327 2.11296,-5.28238 0.62375,-1.87125 1.77447,-6.56967 2.37707,-8.98006"
       inkscape:path-effect="#path-effect16" />
  </g>
</svg>
